<svg width="38" height="24" viewBox="0 0 38 24" fill="none" xmlns="http://www.w3.org/2000/svg">
<g clip-path="url(#clip0_3_581)">
<path d="M26.9988 8.71167C25.688 9.5217 24.8783 10.9103 24.8783 12.4532C24.8783 14.189 25.9193 15.7705 27.5 16.4262C27.1916 17.4291 26.7289 18.3549 26.1506 19.2035C25.3024 20.3992 24.4157 21.6336 23.1048 21.6336C21.794 21.6336 21.4084 20.8621 19.8663 20.8621C18.3627 20.8621 17.8229 21.6721 16.5892 21.6721C15.3554 21.6721 14.5072 20.5535 13.5434 19.1649C12.2711 17.2363 11.5386 14.999 11.5 12.6461C11.5 8.82739 13.9675 6.78303 16.4349 6.78303C17.7458 6.78303 18.8253 7.63163 19.6349 7.63163C20.406 7.63163 21.6398 6.74446 23.1048 6.74446C24.647 6.70588 26.112 7.43877 26.9988 8.71167ZM22.4108 5.1244C23.0663 4.35294 23.4133 3.38862 23.4518 2.38573C23.4518 2.27001 23.4518 2.11572 23.4133 2C22.2952 2.11572 21.2542 2.65574 20.5217 3.50434C19.8663 4.23722 19.4807 5.16297 19.4422 6.16586C19.4422 6.28158 19.4422 6.3973 19.4807 6.51302C19.5578 6.51302 19.6735 6.55159 19.7506 6.55159C20.7916 6.47445 21.7554 5.93443 22.4108 5.1244Z" fill="black"/>
</g>
<defs>
<clipPath id="clip0_3_581">
<rect width="16" height="19.6721" fill="white" transform="translate(11.5 2)"/>
</clipPath>
</defs>
</svg>
