<svg width="20" height="21" viewBox="0 0 20 21" fill="none" xmlns="http://www.w3.org/2000/svg">
<g clip-path="url(#clip0_1_1279)">
<path d="M16.25 17.0945H3.75C3.41848 17.0945 3.10054 16.9628 2.86612 16.7284C2.6317 16.4939 2.5 16.176 2.5 15.8445V7.09448C2.5 6.76296 2.6317 6.44502 2.86612 6.2106C3.10054 5.97618 3.41848 5.84448 3.75 5.84448H6.25L7.5 3.96948H12.5L13.75 5.84448H16.25C16.5815 5.84448 16.8995 5.97618 17.1339 6.2106C17.3683 6.44502 17.5 6.76296 17.5 7.09448V15.8445C17.5 16.176 17.3683 16.4939 17.1339 16.7284C16.8995 16.9628 16.5815 17.0945 16.25 17.0945Z" stroke="black" stroke-width="1.25" stroke-linecap="round" stroke-linejoin="round"/>
<path d="M10 13.9695C11.5533 13.9695 12.8125 12.7103 12.8125 11.157C12.8125 9.60368 11.5533 8.34448 10 8.34448C8.4467 8.34448 7.1875 9.60368 7.1875 11.157C7.1875 12.7103 8.4467 13.9695 10 13.9695Z" stroke="black" stroke-width="1.25" stroke-linecap="round" stroke-linejoin="round"/>
</g>
<defs>
<clipPath id="clip0_1_1279">
<rect width="20" height="20" fill="white" transform="translate(0 0.844482)"/>
</clipPath>
</defs>
</svg>
