<svg width="22" height="22" viewBox="0 0 22 22" fill="none" xmlns="http://www.w3.org/2000/svg">
<path d="M20.68 11.2292C20.68 10.5142 20.6158 9.82675 20.4967 9.16675H11V13.0672H16.4267C16.1929 14.3276 15.4825 15.3955 14.4146 16.1105V18.6405H17.6733C19.58 16.8851 20.68 14.3001 20.68 11.2292Z" fill="#4285F4"/>
<path d="M11 21.0833C13.7225 21.0833 16.005 20.1804 17.6733 18.6404L14.4146 16.1104C13.5117 16.7154 12.3567 17.0729 11 17.0729C8.37375 17.0729 6.15083 15.2991 5.35792 12.9158H1.98917V15.5283C3.64833 18.8237 7.05833 21.0833 11 21.0833Z" fill="#34A853"/>
<path d="M5.35791 12.9158C5.15624 12.3108 5.04166 11.6646 5.04166 11C5.04166 10.3354 5.15624 9.68918 5.35791 9.08418V6.47168H1.98916C1.28332 7.8768 0.916034 9.42757 0.916657 11C0.916657 12.6271 1.30624 14.1671 1.98916 15.5283L5.35791 12.9158Z" fill="#FBBC05"/>
<path d="M11 4.92716C12.4804 4.92716 13.8096 5.43591 14.8546 6.43508L17.7467 3.543C16.0004 1.91591 13.7179 0.916748 11 0.916748C7.05833 0.916748 3.64833 3.17633 1.98917 6.47175L5.35792 9.08425C6.15083 6.70091 8.37375 4.92716 11 4.92716Z" fill="#EA4335"/>
</svg>
