<svg width="60" height="24" viewBox="0 0 60 24" fill="none" xmlns="http://www.w3.org/2000/svg">
<g clip-path="url(#clip0_3_596)">
<path d="M5.05824 11.9443C5.01847 11.785 5.02841 11.6256 5.0483 11.536C5.09802 11.287 5.26706 11.018 5.75431 11.018C6.21172 11.018 6.47026 11.2969 6.47026 11.7252C6.47026 11.8646 6.47026 12.2033 6.47026 12.2033H8.39935V11.6555C8.4093 9.96228 6.8879 9.69336 5.79408 9.69336C4.42184 9.69336 3.29819 10.1515 3.08937 11.4164C3.02971 11.765 3.01977 12.0738 3.10926 12.4622C3.44735 14.0459 6.20178 14.504 6.59953 15.51C6.67908 15.6992 6.64925 15.9383 6.61942 16.0877C6.55975 16.3466 6.38077 16.6156 5.86369 16.6156C5.37644 16.6156 5.08807 16.3367 5.08807 15.9084V15.1614H2.99988V15.759C2.99988 17.492 4.36218 18.01 5.81397 18.01C7.21604 18.01 8.35958 17.5319 8.54851 16.2371C8.638 15.5698 8.5684 15.1315 8.53857 14.9722C8.22037 13.3288 5.27701 12.8507 5.05824 11.9443ZM30.2459 11.9543C30.216 11.8049 30.226 11.6356 30.2359 11.5559C30.2956 11.3069 30.4547 11.038 30.9419 11.038C31.3894 11.038 31.6479 11.3168 31.6479 11.7352C31.6479 11.8746 31.6479 12.2132 31.6479 12.2132H33.5571V11.6754C33.5571 10.0021 32.0656 9.74316 30.9817 9.74316C29.6194 9.74316 28.5057 10.1914 28.2969 11.4463C28.2472 11.785 28.2273 12.0937 28.3168 12.4822C28.6449 14.0459 31.3695 14.504 31.7673 15.5C31.8369 15.6893 31.817 15.9283 31.7772 16.0678C31.7175 16.3267 31.5485 16.5857 31.0314 16.5857C30.5541 16.5857 30.2558 16.3068 30.2558 15.8885V15.1415H28.1974V15.7291C28.1974 17.4422 29.5398 17.9602 30.9817 17.9602C32.3639 17.9602 33.5074 17.4821 33.6864 16.2072C33.7759 15.5399 33.7063 15.1116 33.6765 14.9522C33.3682 13.3387 30.4646 12.8606 30.2459 11.9543ZM47.8265 16.1873L46.0068 9.94236H43.133V17.6215H45.0323L44.9229 11.1774L46.8818 17.6215H49.6362V9.94236H47.727L47.8265 16.1873ZM11.293 9.94236L9.85115 17.7012H11.9393L13.0232 10.52L14.0773 17.7012H16.1555L14.7335 9.94236H11.293ZM22.9869 9.94236L22.0124 16.008L21.0379 9.94236H17.8758L17.7067 17.7012H19.6458L19.6955 10.52L21.028 17.7012H22.9869L24.3194 10.52L24.3691 17.7012H26.3081L26.1391 9.94236H22.9869ZM40.9851 9.94236H39.0262V15.6793C39.0262 15.7789 39.0262 15.8885 39.0063 15.9781C38.9666 16.1674 38.8075 16.5458 38.2605 16.5458C37.7236 16.5458 37.5645 16.1773 37.5247 15.9781C37.5048 15.8984 37.5048 15.7789 37.5048 15.6793V9.94236H35.5459V15.5C35.5459 15.6395 35.5558 15.9383 35.5658 16.008C35.705 17.4522 36.8386 17.9303 38.2605 17.9303C39.6825 17.9303 40.826 17.4622 40.9653 16.008C40.9752 15.9283 40.9951 15.6395 40.9851 15.5V9.94236ZM54.4291 13.3387V14.4742H55.2246V15.5996C55.2246 15.6992 55.2246 15.8088 55.2048 15.8984C55.1749 16.1076 54.9761 16.4662 54.4093 16.4662C53.8524 16.4662 53.6535 16.1076 53.6237 15.8984C53.6138 15.8088 53.6038 15.6992 53.6038 15.5996V12.0539C53.6038 11.9244 53.6138 11.7949 53.6436 11.6854C53.6834 11.4961 53.8524 11.1276 54.4093 11.1276C55.0059 11.1276 55.1451 11.516 55.1849 11.6854C55.2048 11.7949 55.2048 11.9842 55.2048 11.9842V12.4124H57.1537V12.1535C57.1537 12.1535 57.1637 11.8846 57.1438 11.6356C56.9946 10.1914 55.7914 9.7332 54.4192 9.7332C53.047 9.7332 51.8736 10.2013 51.7045 11.6455C51.6847 11.775 51.6648 12.014 51.6648 12.1634V15.4204C51.6648 15.5598 51.6648 15.6694 51.6946 15.9283C51.8239 17.3426 53.047 17.8406 54.4192 17.8406C55.8014 17.8406 57.0145 17.3426 57.1438 15.9283C57.1637 15.6694 57.1736 15.5598 57.1736 15.4204V13.3387H54.4291Z" fill="#1428A0"/>
</g>
<defs>
<clipPath id="clip0_3_596">
<rect width="54.1737" height="8.30664" fill="white" transform="translate(2.99988 9.69336)"/>
</clipPath>
</defs>
</svg>
